<svg xmlns="http://www.w3.org/2000/svg" xmlns:xlink="http://www.w3.org/1999/xlink" viewBox="0 0 1440 810">
  <rect width="1440" height="810" fill="#0A0E1A"/>
  <line x1="80" y1="0" x2="80" y2="810" stroke="#00F0FF" stroke-width="3" stroke-opacity="0.3"/>

  <text x="140" y="150" font-family="system-ui, -apple-system, sans-serif" font-size="56" font-weight="bold" fill="#FFFFFF">{{heading|24}}</text>
  <rect x="140" y="175" width="220" height="4" fill="#00F0FF" rx="2"/>

  <!-- Panel 1 -->
  <g>
    <clipPath id="gclip1"><rect x="140" y="270" width="350" height="300" rx="16"/></clipPath>
    <image x="140" y="270" width="350" height="300" clip-path="url(#gclip1)" preserveAspectRatio="xMidYMid slice" href="{{image_1}}"/>
    <rect x="140" y="270" width="350" height="300" rx="16" fill="none" stroke="#00F0FF" stroke-width="2" stroke-opacity="0.4"/>
    <text x="315" y="625" font-family="system-ui, -apple-system, sans-serif" font-size="30" font-weight="bold" fill="#00F0FF" text-anchor="middle">{{label_1|26}}</text>
    <text x="315" y="665" font-family="system-ui, -apple-system, sans-serif" font-size="22" fill="#E2E8F0" text-anchor="middle">{{caption_1|34}}</text>
  </g>

  <!-- Panel 2 -->
  <g>
    <clipPath id="gclip2"><rect x="545" y="270" width="350" height="300" rx="16"/></clipPath>
    <image x="545" y="270" width="350" height="300" clip-path="url(#gclip2)" preserveAspectRatio="xMidYMid slice" href="{{image_2}}"/>
    <rect x="545" y="270" width="350" height="300" rx="16" fill="none" stroke="#FF007F" stroke-width="2" stroke-opacity="0.4"/>
    <text x="720" y="625" font-family="system-ui, -apple-system, sans-serif" font-size="30" font-weight="bold" fill="#FF007F" text-anchor="middle">{{label_2|26}}</text>
    <text x="720" y="665" font-family="system-ui, -apple-system, sans-serif" font-size="22" fill="#E2E8F0" text-anchor="middle">{{caption_2|34}}</text>
  </g>

  <!-- Panel 3 -->
  <g>
    <clipPath id="gclip3"><rect x="950" y="270" width="350" height="300" rx="16"/></clipPath>
    <image x="950" y="270" width="350" height="300" clip-path="url(#gclip3)" preserveAspectRatio="xMidYMid slice" href="{{image_3}}"/>
    <rect x="950" y="270" width="350" height="300" rx="16" fill="none" stroke="#00F0FF" stroke-width="2" stroke-opacity="0.4"/>
    <text x="1125" y="625" font-family="system-ui, -apple-system, sans-serif" font-size="30" font-weight="bold" fill="#00F0FF" text-anchor="middle">{{label_3|26}}</text>
    <text x="1125" y="665" font-family="system-ui, -apple-system, sans-serif" font-size="22" fill="#E2E8F0" text-anchor="middle">{{caption_3|34}}</text>
  </g>
</svg>
